Coordinates
version=1
nRows=26
nColumns=24
inDegrees=yes

Units are S.I. units (second, meters, Newtons, ...)
Angles are in degrees.

endheader
time	pelvis_tilt	pelvis_list	pelvis_rotation	pelvis_tx	pelvis_ty	pelvis_tz	hip_flexion_r	hip_adduction_r	hip_rotation_r	knee_angle_r	ankle_angle_r	subtalar_angle_r	mtp_angle_r	hip_flexion_l	hip_adduction_l	hip_rotation_l	knee_angle_l	ankle_angle_l	subtalar_angle_l	mtp_angle_l	lumbar_extension	lumbar_bending	lumbar_rotation
      1.91000000	     -7.49352344	     -0.94761633	      2.98635547	      0.18411511	      1.28950187	     -0.89051523	      8.54804524	      6.25786944	     11.80089909	     -1.52782340	     -3.16314467	     -7.94991157	     -2.84663509	     23.19197005	      3.26800946	     -3.60048503	    -53.53872777	    -10.11324503	    -35.63265947	      5.58866522	      0.74488727	      2.95586613	     -4.32963755
      1.91500000	     -7.38427428	     -0.99622966	      3.02115405	      0.18930922	      1.28953845	     -0.89052845	      7.86708909	      6.30108869	     11.82514035	     -1.21030192	     -2.94057953	     -7.89358065	     -2.76292503	     23.78546846	      3.38326449	     -3.27845027	    -53.06121885	     -9.25057375	    -35.32403796	      5.75115142	      0.59203522	      3.02305843	     -4.29433775
      1.92000000	     -7.27681341	     -1.03328816	      2.99542944	      0.19446366	      1.28952560	     -0.89049018	      7.22179886	      6.34655543	     11.96687345	     -0.94897604	     -2.73610392	     -7.89699894	     -2.68689287	     24.34634383	      3.49540850	     -2.99545076	    -52.49740299	     -8.44447991	    -35.02178787	      5.89705725	      0.42723801	      3.09297154	     -4.21388972
      1.92500000	     -7.17291385	     -1.07946505	      2.91375252	      0.19964839	      1.28944729	     -0.89035535	      6.58139438	      6.41425933	     12.19741536	     -0.68535293	     -2.52027790	     -7.96368976	     -2.58705649	     24.88741812	      3.54703414	     -2.79835119	    -51.87854613	     -7.66328443	    -34.57077107	      6.08265282	      0.27666376	      3.16652025	     -4.05010438
      1.93000000	     -7.10057760	     -1.12737076	      2.77991336	      0.20477623	      1.28928816	     -0.89019601	      6.01382663	      6.49119094	     12.54425938	     -0.48053994	     -2.35837074	     -8.12837543	     -2.45461964	     25.44102880	      3.58712187	     -2.61730551	    -51.19741465	     -6.89217394	    -34.09432954	      6.27971470	      0.14643125	      3.25853654	     -3.86490459
      1.93500000	     -6.96908661	     -1.13326348	      2.56892989	      0.20982583	      1.28917523	     -0.88997884	      5.42420575	      6.53520899	     12.97473701	     -0.35095046	     -2.11133262	     -8.22520933	     -2.39402355	     25.87380172	      3.63538201	     -2.52258812	    -50.38712431	     -6.35012923	    -33.85603774	      6.36411338	     -0.07394323	      3.32691913	     -3.59477373
      1.94000000	     -6.88392906	     -1.19289971	      2.32504177	      0.21484822	      1.28893038	     -0.88968010	      4.88016591	      6.63976677	     13.55807961	     -0.19155926	     -2.02013045	     -8.61358334	     -2.22920601	     26.37042508	      3.58332821	     -2.45042251	    -49.59520690	     -5.58098380	    -33.17072116	      6.58915823	     -0.23787047	      3.43591576	     -3.29209287
      1.94500000	     -6.74645634	     -1.22568791	      2.00077576	      0.21975241	      1.28871657	     -0.88933579	      4.33007338	      6.72433649	     14.20686369	     -0.11691083	     -1.81624885	     -8.87441684	     -2.10675973	     26.76946211	      3.52074328	     -2.46031340	    -48.69914815	     -5.10819031	    -32.76632427	      6.70859465	     -0.48679437	      3.53785305	     -2.86851599
      1.95000000	     -6.64762322	     -1.25816037	      1.61867414	      0.22457279	      1.28843412	     -0.88891689	      3.85584656	      6.81445197	     15.01206220	     -0.08725372	     -1.72801227	     -9.36445827	     -1.92853469	     27.18259442	      3.41745578	     -2.52572929	    -47.74012137	     -4.48035462	    -32.21136946	      6.86832328	     -0.71765340	      3.64809442	     -2.46441034
      1.95500000	     -6.52078551	     -1.29608276	      1.18030387	      0.22929562	      1.28814035	     -0.88844379	      3.38374062	      6.91529330	     15.88197305	     -0.10699864	     -1.58907996	     -9.82118539	     -1.74403601	     27.54412688	      3.26715358	     -2.64671801	    -46.72259198	     -4.01568281	    -31.73936722	      6.99260365	     -0.99714946	      3.76235803	     -1.96415622
      1.96000000	     -6.35217280	     -1.32141215	      0.70756219	      0.23393810	      1.28787977	     -0.88796296	      2.92600745	      7.00915394	     16.66797143	     -0.24105305	     -1.30393530	     -9.97617094	     -1.66206744	     27.81802658	      3.11087781	     -2.79934849	    -45.60497135	     -3.76608432	    -31.47876551	      7.04391940	     -1.33932218	      3.86859678	     -1.42266836
      1.96500000	     -6.25578177	     -1.39750959	      0.16705817	      0.23850476	      1.28745215	     -0.88736811	      2.50256303	      7.15045550	     17.80040940	     -0.26001671	     -1.31923253	    -10.80654125	     -1.45941302	     28.18810144	      2.82598705	     -3.03537642	    -44.53402360	     -3.20772595	    -30.75197038	      7.21105564	     -1.61547972	      4.02871365	     -0.81508042
      1.97000000	     -6.11758805	     -1.46722211	     -0.38653130	      0.24301094	      1.28706113	     -0.88679532	      2.07987543	      7.28543698	     18.81053197	     -0.37087769	     -1.17752459	    -11.30511732	     -1.23964254	     28.46949440	      2.54423307	     -3.27380962	    -43.36287712	     -2.91070364	    -30.29684840	      7.29575143	     -1.94969403	      4.17775767	     -0.17490742
      1.97500000	     -5.97071883	     -1.54339606	     -0.96542342	      0.24745075	      1.28664358	     -0.88618261	      1.67151146	      7.43043221	     19.84679248	     -0.52638213	     -1.03655433	    -11.81943387	     -1.04408611	     28.71112103	      2.22285668	     -3.56066593	    -42.13359990	     -2.59673491	    -29.81886247	      7.37556611	     -2.31351474	      4.33058056	      0.46721347
      1.98000000	     -5.83106218	     -1.63428941	     -1.56825583	      0.25184149	      1.28619257	     -0.88557541	      1.28574194	      7.58907909	     20.87987967	     -0.70965235	     -0.89465551	    -12.32841808	     -0.85113865	     28.93417886	      1.86568246	     -3.86959257	    -40.85710225	     -2.33509015	    -29.34195897	      7.44385689	     -2.68421733	      4.50305958	      1.12989335
      1.98500000	     -5.67114334	     -1.72134161	     -2.16933841	      0.25623121	      1.28576225	     -0.88497777	      0.90418044	      7.74310279	     21.77260443	     -0.95558061	     -0.64692717	    -12.50900049	     -0.75296075	     29.08688771	      1.50869068	     -4.18982595	    -39.48863702	     -2.26805523	    -29.01142220	      7.47855154	     -3.07593621	      4.65401867	      1.80501185
      1.99000000	     -5.55310993	     -1.86302294	     -2.79775700	      0.26054737	      1.28518302	     -0.88434851	      0.50715633	      7.93548362	     22.92798723	     -1.07395920	     -0.58356848	    -13.22176419	     -0.56774018	     29.30049771	      1.05471636	     -4.53626560	    -38.17519230	     -1.95766948	    -28.34939390	      7.56437144	     -3.44009640	      4.86301086	      2.54533004
      1.99500000	     -5.39928110	     -1.98771858	     -3.38955732	      0.26488586	      1.28465708	     -0.88384260	      0.13585497	      8.11346381	     23.74185406	     -1.34498012	     -0.20128244	    -13.27042339	     -0.49250482	     29.40658389	      0.66391414	     -4.83285060	    -36.72043267	     -1.96242070	    -28.14479227	      7.57020609	     -3.84699187	      5.05449934	      3.20903405
      2.00000000	     -5.28582230	     -2.14591404	     -4.05201879	      0.26916564	      1.28405131	     -0.88314408	     -0.24912867	      8.32104177	     24.90943875	     -1.49012292	     -0.25427854	    -14.01800768	     -0.27223565	     29.54645332	      0.14078792	     -5.27560412	    -35.29482089	     -1.69000570	    -27.34687500	      7.66669765	     -4.22468737	      5.25594683	      3.96340954
      2.00500000	     -5.16521908	     -2.29283244	     -4.65034427	      0.27350523	      1.28344152	     -0.88265567	     -0.59541544	      8.51062283	     25.70251775	     -1.76004320	      0.12680550	    -14.04320939	     -0.18340465	     29.62113116	     -0.29095995	     -5.60241155	    -33.74696192	     -1.77566542	    -27.12158330	      7.66975594	     -4.60026736	      5.45639253	      4.66857943
      2.01000000	     -5.05129090	     -2.48085204	     -5.30253639	      0.27779412	      1.28277924	     -0.88202069	     -0.99588467	      8.73032904	     26.80029865	     -1.90424510	      0.11892734	    -14.67780417	      0.06766234	     29.69042216	     -0.84475166	     -6.06543000	    -32.23322382	     -1.55757604	    -26.34331740	      7.76410872	     -4.98867092	      5.68045226	      5.41807546
      2.01500000	     -4.97166303	     -2.64126057	     -5.89543600	      0.28216635	      1.28209551	     -0.88156305	     -1.30991339	      8.92435898	     27.55534450	     -2.17535374	      0.48828313	    -14.67592269	      0.15775006	     29.73351823	     -1.29620852	     -6.41644765	    -30.58602708	     -1.72138787	    -26.09315693	      7.77326657	     -5.32788053	      5.88198600	      6.12285920
      2.02000000	     -4.85981389	     -2.85266922	     -6.53119531	      0.28649783	      1.28139028	     -0.88100567	     -1.72354777	      9.14864102	     28.57295987	     -2.32316312	      0.53703613	    -15.16747755	      0.41145874	     29.72907650	     -1.86352285	     -6.90220067	    -28.98395242	     -1.56192887	    -25.35274424	      7.89022996	     -5.72064853	      6.11987619	      6.85971182
      2.02500000	     -4.82732605	     -3.01957410	     -7.10874241	      0.29096173	      1.28062953	     -0.88059331	     -2.00954503	      9.33819817	     29.28315340	     -2.58003077	      0.89094279	    -15.15330100	      0.49998331	     29.74498013	     -2.31958527	     -7.28465542	    -27.24933330	     -1.78562372	    -25.06577416	      7.90884267	     -5.99931030	      6.32211102	      7.55179151
      2.03000000	     -4.72776063	     -3.24022607	     -7.72814503	      0.29537091	      1.27989149	     -0.88008013	     -2.42450932	      9.55840806	     30.23423989	     -2.73534697	      0.97296519	    -15.55094045	      0.76971031	     29.67514359	     -2.88659644	     -7.81618798	    -25.57110692	     -1.65268810	    -24.31148673	      8.07014339	     -6.37883194	      6.55455822	      8.26802890
      2.03500000	     -4.69556594	     -3.43431799	     -8.31516733	      0.29987509	      1.27910195	     -0.87965668	     -2.74672427	      9.75887186	     31.02590399	     -2.94730851	      1.19785169	    -15.71519378	      1.01100033	     29.63193354	     -3.39094973	     -8.30368998	    -23.82232758	     -1.73680577	    -23.79415960	      8.18609469	     -6.66985989	      6.77001727	      8.93847451
